<svg xmlns="http://www.w3.org/2000/svg" width="13" height="17" viewBox="0 0 13 17"><defs><style>.a{opacity:0.6;}.b{fill:#0c0c0c;}</style></defs><g class="a"><path class="b" d="M73.876,1.531a.873.873,0,0,1,.914-.869h3.759a.873.873,0,0,1,.914.869v.952h.677V1.531A1.544,1.544,0,0,0,78.549,0H74.791A1.544,1.544,0,0,0,73.2,1.531v.952h.677Zm0,0" transform="translate(-70.17)"/><path class="b" d="M29.56,135.712H37.5a1.418,1.418,0,0,0,1.36-1.49V124H28.2v10.222a1.418,1.418,0,0,0,1.361,1.49Zm6.114-10.131a.336.336,0,0,1,.672,0V133.4a.336.336,0,0,1-.672,0Zm-2.478,0a.336.336,0,0,1,.672,0V133.4a.336.336,0,0,1-.672,0Zm-2.478,0a.336.336,0,0,1,.672,0V133.4a.336.336,0,0,1-.672,0Zm0,0" transform="translate(-27.032 -118.711)"/><path class="b" d="M.838,69.655H12.162a.828.828,0,1,0,0-1.655H.838a.828.828,0,1,0,0,1.655Zm0,0" transform="translate(0 -65.157)"/></g></svg>